<?xml version="1.0" encoding="UTF-8"?>
<svg viewBox="0 0 640 480" xmlns="http://www.w3.org/2000/svg" xmlns:xlink="http://www.w3.org/1999/xlink">
 <defs>
  <filter id="v">
   <feGaussianBlur stdDeviation="0.763972"/>
  </filter>
  <filter id="w">
   <feGaussianBlur stdDeviation="0.660782"/>
  </filter>
  <filter id="ac">
   <feGaussianBlur stdDeviation="0.881067"/>
  </filter>
  <filter id="ab" x="-.031918" y="-.18375" width="1.0638" height="1.3675">
   <feGaussianBlur stdDeviation="0.881067"/>
  </filter>
  <filter id="aa">
   <feGaussianBlur stdDeviation="0.846662"/>
  </filter>
  <filter id="z">
   <feGaussianBlur stdDeviation="0.393304"/>
  </filter>
  <filter id="s">
   <feGaussianBlur stdDeviation="0.649125"/>
  </filter>
  <filter id="u" x="-.086663" y="-.19502" width="1.1733" height="1.39">
   <feGaussianBlur stdDeviation="0.694299"/>
  </filter>
  <filter id="t">
   <feGaussianBlur stdDeviation="0.577344"/>
  </filter>
  <linearGradient id="af" x1=".035139" x2="-.23981" y1=".51676" y2="2.4298" xlink:href="#x"/>
  <linearGradient id="ag" x1=".77602" x2="-.30061" y1="1.052" y2=".64002" xlink:href="#a"/>
  <linearGradient id="ah" x1="-4.7197" x2="-4.9682" y1="-1.4942" y2=".23487" xlink:href="#x"/>
  <linearGradient id="ae" x1="-.076124" x2="-.076124" y1="-1.3621" y2="1.7076" xlink:href="#a"/>
  <linearGradient id="ad" x1=".056625" x2=".056625" y1=".4348" y2=".88426">
   <stop stop-color="#b3b3b3" offset="0"/>
   <stop stop-color="#b3b3b3" offset=".59398"/>
   <stop stop-color="#666" offset="1"/>
  </linearGradient>
  <linearGradient id="ai" x1="-4.5921" x2="-5.5652" y1="1.4134" y2="1.041" xlink:href="#a"/>
  <linearGradient id="a">
   <stop offset="0"/>
   <stop stop-opacity="0" offset="1"/>
  </linearGradient>
  <linearGradient id="x">
   <stop stop-color="#fff" offset="0"/>
   <stop stop-color="#fff" stop-opacity="0" offset="1"/>
  </linearGradient>
  <radialGradient id="y" cx="11.99" cy="166.04" r="22.913" gradientTransform="matrix(0 -.62588 .5262 -7.772e-7 -57.44 136.92)" gradientUnits="userSpaceOnUse">
   <stop stop-opacity="0" offset="0"/>
   <stop stop-opacity="0" offset=".66792"/>
   <stop stop-opacity=".246" offset="1"/>
  </radialGradient>
 </defs>
 <g transform="rotate(-50.244 128.92 120.28)">
  <g stroke-linecap="round" stroke-linejoin="round" stroke-width="2">
   <path d="m204.9 85.307c-8.6076 0.1264-16.44 4.5182-22.187 9.9834-0.01001-6.9e-5 -0.019958-6.9e-5 -0.029938 0-6.4099 6.176-11.204 9.369-13.923 10.456 0.068802-0.02153-0.15376 0.072044-0.029938 0.031487-0.050369 0.019798-0.10028 0.040794-0.1497 0.062988v-0.031487c-0.80347 0.24891-1.4546 0.34643-1.8564 0.34643h-0.26948l-82.22 0.189h-1.018c-5.6225 0-10.929-3.1494-15.57-8.0308-0.009781-0.021111-0.019775-0.042107-0.029953-0.062988-6.3154-6.4048-15.144-7.8114-23.025-6.4246-0.040085 0.009743-0.079987 0.020241-0.11975 0.031471-11.585 2.4356-20.119 12.5-22.307 24.691-0.22302 1.2418 0.17744 2.5168 1.0598 3.3745 0.88238 0.85769 2.1224 1.1772 3.2817 0.84561l1.0779-0.3149 1.7366-0.5039h0.059891l15.45-3.3068c0.050873-0.010941 0.074417-0.091911 0.62877 0.37793 0.55437 0.46983 1.3648 1.4853 2.066 2.8659 1.398 2.7527 2.4298 6.8117 2.5151 9.8259 2.75e-4 0.009262-2.44e-4 0.022232 0 0.031494-0.051819 1.2559-0.3018 2.2651-0.50899 2.7084-0.20947 0.44832-0.14414 0.29031-0.11978 0.28342l-6.5273 1.7951c-0.060715 0.029678-0.1206 0.061188-0.17963 0.094467-0.009995-3.1e-5 -0.019974-3.1e-5 -0.029968 0l-0.1796 0.063-12.066 3.4013c-1.1354 0.32001-2.0412 1.2201-2.4092 2.3943-0.36812 1.1742-0.14899 2.4644 0.58276 3.432 0.23694 0.30853 0.48367 0.59741 0.7186 0.88184 3.4837 4.2172 7.9379 7.4256 12.935 9.133 0.011414 0.004166 0.018341-0.004135 0.029922 0 0.011612 0.004135 0.018219-0.004089 0.029968 0 0.018616 0.006516 0.010895 0.02507 0.029922 0.031509 0.009995 4.6e-5 0.019974 4.6e-5 0.029953 0 4.3633 1.447 8.9903 1.6483 13.384 0.8188 0.01004-0.010406 0.02002-0.020935 0.029938-0.031494 4.7026-0.93204 9.2065-2.9878 12.725-6.5506 5.4132-5.0543 10.83-10.422 16.558-10.865h46.08c0.17017 0.002594 0.34029-0.007919 0.50902-0.031479h1.1378c0.14891 0.020645 0.29895 0.031174 0.44914 0.031479l34.463 0.189c0.01004 3.1e-5 0.019989 3.1e-5 0.029984 0h0.74855c1.937 0 3.8092 0.34949 5.659 1.0078 0.021088 0.007507 0.038849 0.023926 0.059906 0.031494 4.0513 1.7456 8.1214 5.2354 11.767 9.0701 0.029053 0.042664 0.059021 0.084671 0.089813 0.12596 7.099 6.8262 16.436 8.5013 25.151 6.9285 0.03009-0.010086 0.059998-0.020584 0.089844-0.031494 12.656-2.6608 21.979-13.647 24.373-26.99 0.22296-1.2418-0.17749-2.5168-1.0599-3.3745-0.88232-0.85769-2.1223-1.1772-3.2817-0.84561l-1.1976 0.3464-2.2457 0.5984-16.857 3.6217c-0.18188 0.039154-0.34558 0.068253-1.0179-0.50389-0.67242-0.57216-1.5737-1.7404-2.3654-3.3068-1.5657-3.0975-2.6802-7.5941-2.7846-10.991 0.054932-1.438 0.30536-2.6581 0.56891-3.2438 0.27136-0.60323 0.28326-0.51396 0.35931-0.53537l7.4255-2.0471c6.1e-5 -0.01049 6.1e-5 -0.020996 0-0.031494l13.594-3.8422c1.1354-0.32001 2.0411-1.2201 2.4092-2.3943s0.14905-2.4644-0.58276-3.432c-0.2868-0.37349-0.55322-0.67211-0.77844-0.94479-3.8191-4.6287-8.7024-8.1181-14.162-9.9834-0.019836-0.010696-0.039856-0.021194-0.059875-0.031487-0.020264-0.006874-0.010071 0.006447-0.029968 0-0.029785-0.010918-0.059753-0.021423-0.089783-0.031502 1.3905 0.38852 1.3809 0.3663-0.059875-0.031487v0.031487c-2.8873-1.0577-5.727-1.4274-8.5634-1.3857z"/>
   <path d="m199.34 87.438c-4.6206 0.91579-8.8853 2.9225-12.126 6.2042-10.408 10.538-17.218 14.298-20.72 14.298l-83.522 0.063c-6.8454 0-12.973-3.7878-18.025-9.1016-4.1519-4.367-10.221-6.1344-16.198-5.9207-0.50266 0.017967-0.99446 0.069611-1.4971 0.12598 0.29573-0.020195 0.60358-0.031425 0.89827-0.031494 9.7231-0.00235 18.776 10.85 20.72 25.384 1.9941 14.908-4.2225 28.297-13.983 30.706 4.176-0.82768 8.0293-2.6398 10.959-5.6058 9.407-9.5246 15.549-11.873 18.714-11.873l83.702-0.063c7.574 0 14.352 5.5527 19.941 11.432 4.5938 4.8318 11.321 6.787 17.935 6.5506 0.55615-0.019867 1.0906-0.063599 1.6468-0.12596-0.32727 0.022324-0.66205 0.031418-0.9881 0.031479-10.758 0.002609-20.784-12.011-22.935-28.092-2.2064-16.495 4.6806-31.316 15.48-33.981z" fill="url(#ad)"/>
   <path d="m50.188 92.98c-0.2361 0.008621-0.48503 0.042038-0.71858 0.062988-0.09761 0.010834-0.20248 0.015327-0.29942 0.031494 0.14223-0.004982 0.28017 2.3e-5 0.41917 0 1.0972-2.67e-4 2.1936 0.16336 3.2637 0.4409-0.17108-0.060463-0.33487-0.12978-0.50902-0.18896 1.2731 0.24703 2.1478 0.64509 2.9044 1.0393 0.096985 0.050545 0.20586 0.10762 0.29942 0.15747 7.0226 3.3973 12.818 12.519 14.312 23.935 0.06514 0.49786 0.10228 0.98608 0.14972 1.4802-0.021622-3.604-0.66089-7.0232-1.2875-9.448-2.0059-7.7616-5.3294-10.129-3.8625-9.4165 0.47556 0.39888 0.97594 0.82739 1.1677 1.0078 4.9426 4.65 10.938 8.4458 17.636 7.9993l85.139-0.6928c0.17618 0.005112 0.34204 0.01812 0.539 0 2.9537-0.27182 8.2553-3.3398 16.109-14.014-9.4198 9.918-15.653 12.44-18.953 12.44h-0.26946l-82.564 0.189h-0.68868c-6.8454 0-12.973-3.7878-18.025-9.1016-3.6329-3.8211-8.73-5.6659-13.953-5.9207-0.26863-0.013107-0.53935 0.004829-0.80846 0zm-1.018 0.0945c-0.11433 0.011833-0.21999 0.024254-0.32935 0.031494 0.070557 0.003723 0.13911-0.004868 0.20956 0 0.010147-1.98e-4 0.019821 4.2e-4 0.029968 0 0.030792-0.001305 0.058975-0.030426 0.089813-0.031494z" filter="url(#aa)"/>
   <path d="m81.986 130.39c-2.6695 0.22514-7.4539 2.7478-14.552 11.59 8.5136-8.215 14.144-10.298 17.127-10.298h46.35l-48.416-1.2912c-0.15921-0.004242-0.33106-0.014999-0.50902 0z" filter="url(#ab)"/>
   <path d="m89.4 115.03c-2.5513 0.27089-4.5212 2.5336-4.5212 5.2909 0 2.9411 2.234 5.3224 5.0302 5.3224h75.221c2.7962 0 5.0302-2.3813 5.0302-5.3224 0-2.7573-1.9699-5.02-4.5212-5.2909-0.17009-0.018066-0.33424 0-0.50897 0h-75.221c-0.17474 0-0.3389-0.018066-0.50899 0z" fill="url(#ae)" filter="url(#z)"/>
   <path d="m204.53 149.61c0.26123-0.010178 0.53662-0.049606 0.7951-0.07431 0.10797-0.012772 0.224-0.018097 0.33124-0.037155-0.15735 0.005859-0.31-4.6e-5 -0.46374 0-1.2141 3.05e-4 -2.4271-0.19276-3.6111-0.52022 0.18933 0.07135 0.37054 0.15315 0.56317 0.22295-1.4086-0.29146-2.3764-0.76111-3.2135-1.2262-0.1073-0.059647-0.22774-0.12701-0.33131-0.18581-7.7701-4.0084-14.183-14.771-15.836-28.24-0.072052-0.58742-0.11316-1.1634-0.16562-1.7464 0.02388 4.2523 0.7312 8.2864 1.4245 11.147 2.2194 9.1576 5.8966 11.951 4.2736 11.11-0.52618-0.47061-1.0799-0.97623-1.292-1.189-5.4687-5.4864-12.103-9.9649-19.513-9.4381l-34.454 2.2615 34.454 0.1909h0.76196c7.5741 0 14.354 4.4691 19.944 10.739 4.0195 4.5084 9.6592 6.685 15.438 6.9857 0.29718 0.015472 0.59674-0.005707 0.89447 0zm1.1263-0.1115c0.12653-0.013962 0.24341-0.028656 0.36444-0.037155-0.078064-0.004425-0.15393 0.005737-0.23187 0-0.01123 1.98e-4 -0.021912-5.04e-4 -0.033142 0-0.034119 0.001511-0.065308 0.035873-0.099426 0.037155z" filter="url(#ac)"/>
   <path d="m44.589 109.89c-0.22751 0.014977-0.45786 0.060928-0.68866 0.12597l-15.719 4.4091 15.719-3.3698c4.9662-1.069 9.2544 9.3869 9.3718 16.817 0.27742-7.3662-3.7878-18.304-8.6831-17.983z" filter="url(#w)"/>
   <path d="m48.152 93.075c-0.29469 6.9e-5 -0.60254 0.011299-0.89827 0.031494-0.029175 0.003281-0.060654-0.003387-0.089813 0-0.32538 0.024429-0.63199 0.07663-0.95816 0.12598-0.42844 0.064781-0.86758 0.13217-1.2875 0.22044-10.091 2.1214-17.635 10.943-19.582 21.793l18.564-5.2279c7.3861-2.0816 13.271 22.248 6.168 24.25l-18.983 5.3539c4.0696 5.2989 9.7726 8.8737 16.049 9.7944 0.038986 0.005722 0.08078-0.005524 0.11978 0 2.1831 0.1346 3.9945 0.1664 5.2997 0.094452 0.44348-0.024429 0.84158-0.07663 1.1677-0.12595 0.39606-0.059921 0.77689-0.14299 1.1677-0.22046 9.7604-2.4092 15.977-15.798 13.983-30.706-1.9441-14.534-10.997-25.386-20.72-25.384z" fill="#b3b3b3"/>
   <path d="m48.152 93.075c-0.29469 6.9e-5 -0.60254 0.011299-0.89827 0.031494-0.029175 0.003281-0.060654-0.003387-0.089813 0-0.32538 0.024429-0.63199 0.07663-0.95816 0.12598-0.42844 0.064781-0.86758 0.13217-1.2875 0.22044-10.091 2.1214-17.635 10.943-19.582 21.793l18.564-5.2279c7.3861-2.0816 13.271 22.248 6.168 24.25l-18.983 5.3539c4.0696 5.2989 9.7726 8.8737 16.049 9.7944 0.038986 0.005722 0.08078-0.005524 0.11978 0 2.1831 0.1346 3.9945 0.1664 5.2997 0.094452 0.44348-0.024429 0.84158-0.07663 1.1677-0.12595 0.39606-0.059921 0.77689-0.14299 1.1677-0.22046 9.7604-2.4092 15.977-15.798 13.983-30.706-1.9441-14.534-10.997-25.386-20.72-25.384z" fill="url(#y)"/>
   <path d="m48.152 93.075c-0.29469 6.9e-5 -0.60254 0.011299-0.89827 0.031494-0.029175 0.003281-0.060654-0.003387-0.089813 0-0.32538 0.024429-0.63199 0.07663-0.95816 0.12598-0.42844 0.064781-0.86758 0.13217-1.2875 0.22044-10.091 2.1214-17.635 10.943-19.582 21.793l1.0779-0.3149c2.2971-10.105 9.2315-18.507 18.324-21.132 0.40021-0.11554 0.81926-0.22208 1.2276-0.31494 0.31088-0.070663 0.58815-0.14298 0.89827-0.18893 0.027817-0.005318 0.061996 0.00518 0.089813 0 0.28188-0.03978 0.58746-0.07473 0.8683-0.094505 1.1585-0.081497 2.2869 0.008987 3.4134 0.25195-1.0144-0.2382-2.0465-0.37817-3.084-0.37791zm5.5691 1.1967c0.27173 0.11732 0.54079 0.24256 0.80846 0.37793-0.26811-0.13295-0.5368-0.26123-0.80846-0.37793zm2.3954 1.2912c5.6849 3.7444 10.164 11.603 11.438 21.415 1.9007 14.641-4.021 28.328-13.324 31.367-0.37257 0.1029-0.73036 0.1976-1.1078 0.28345-0.31093 0.070663-0.68516 0.1666-1.1079 0.22046-1.244 0.15848-2.9793 0.23944-5.0602 0.25195-0.03717-0.002869-0.082611 0.003052-0.11974 0-1.277-0.10526-2.5254-0.32121-3.7427-0.66138 1.3113 0.44807 2.6644 0.77418 4.0421 0.97632 0.038986 0.005722 0.08078-0.005524 0.11978 0 2.1831 0.1346 3.9945 0.1664 5.2997 0.094452 0.44348-0.024429 0.84158-0.07663 1.1677-0.12595 0.39606-0.059921 0.77689-0.14299 1.1678-0.22046 9.7603-2.4092 15.977-15.798 13.983-30.706-1.3921-10.407-6.4374-18.898-12.755-22.896zm-12.576 40.532l-12.456 3.5273c0.20526 0.26723 0.41534 0.52896 0.62877 0.78732l11.827-4.3146z" filter="url(#v)"/>
   <path d="m48.092 94.587c-0.27029 9.2e-5 -0.56709 0.012405-0.83838 0.031502-0.026733 0.003098-0.063034-0.003197-0.089813 0-0.29848 0.023117-0.56912 0.07933-0.8683 0.12597-0.39307 0.06131-0.78258 0.13699-1.1678 0.22046-3.2114 0.69618-6.1509 2.1514-8.6831 4.1886 1.8824-0.80653 3.9025-1.4202 6.0183-1.7951 0.44997-0.079712 0.91817-0.13042 1.3773-0.18893 0.34953-0.044571 0.66933-0.10392 1.018-0.12598 0.031296-0.003052 0.058548 0.002953 0.089828 0 0.31692-0.018227 0.64238-0.031441 0.95812-0.031487 7.8148-0.001595 15.247 5.5318 19.342 13.826-3.3252-9.6632-10.023-16.252-17.157-16.251z" fill="url(#af)" filter="url(#t)"/>
   <path d="m44.107 108.35c-0.23483 0.029655-0.49718 0.077408-0.7532 0.16504l-9.9489 3.4001 9.8234-2.7069c1.4979-0.41307 2.94 0.052116 4.2369 1.0894 1.2969 1.0372 2.4697 2.6463 3.4523 4.5555 0.33254 0.64611 0.6205 1.3725 0.91014 2.0796-0.26279-0.74074-0.50784-1.4955-0.81598-2.1787-0.89699-1.9889-1.9904-3.7077-3.1698-4.8526s-2.4258-1.7168-3.7348-1.5515z" fill="#fff" filter="url(#u)"/>
   <path d="m63.354 108.76c0.70694 3.5717 0.83853 7.3922 0.28816 11.306-1.8661 13.271-10.985 23.818-22.131 27.084 1.1503 0.36888 2.3136 0.64375 3.5157 0.81883 0.037491 0.005447 0.077728-0.005264 0.1153 0 2.101 0.1286 3.8444 0.16319 5.1006 0.094467 0.42679-0.023346 0.80991-0.047333 1.1238-0.094467 0.38121-0.05722 0.74768-0.14644 1.1239-0.22046 9.3937-2.3017 15.377-15.108 13.458-29.352-0.46776-3.4714-1.3674-6.7123-2.5935-9.637z" fill="url(#ag)" filter="url(#s)"/>
   <path d="m210.73 130.89c0.25177-0.016541 0.50659-0.067398 0.76196-0.13937l17.393-4.8784-17.393 3.7285c-5.4947 1.1827-10.239-10.386-10.369-18.608-0.30695 8.1503 4.191 20.253 9.6074 19.897z" filter="url(#w)"/>
   <path d="m206.79 149.5c0.32605-7.6e-5 0.66663-0.012527 0.9939-0.034851 0.032227-0.003616 0.067078 0.003754 0.099365 0 0.36005-0.027039 0.69922-0.084793 1.0601-0.13939 0.474-0.071701 0.95996-0.14624 1.4246-0.24393 11.165-2.3472 19.512-12.108 21.666-24.113l-20.54 5.7844c-8.1723 2.3032-14.683-24.616-6.8245-26.831l21.004-5.9237c-4.5028-5.863-10.813-9.8182-17.757-10.837-0.043152-0.00634-0.089355 0.006088-0.13251 0-2.4155-0.14894-4.4197-0.18412-5.8638-0.10456-0.49072 0.027039-0.93115 0.084801-1.292 0.1394-0.43817 0.066261-0.85957 0.1582-1.292 0.24391-10.799 2.6656-17.678 17.479-15.471 33.974 2.151 16.081 12.167 28.088 22.925 28.086z" fill="#b3b3b3"/>
   <path d="m206.79 149.5c0.32605-7.6e-5 0.66663-0.012527 0.9939-0.034851 0.032227-0.003616 0.067078 0.003754 0.099365 0 0.36005-0.027039 0.69922-0.084793 1.0601-0.13939 0.474-0.071701 0.95996-0.14624 1.4246-0.24393 11.165-2.3472 19.512-12.108 21.666-24.113l-20.54 5.7844c-8.1723 2.3032-14.683-24.616-6.8245-26.831l21.004-5.9237c-4.5028-5.863-10.813-9.8182-17.757-10.837-0.043152-0.00634-0.089355 0.006088-0.13251 0-2.4155-0.14894-4.4197-0.18412-5.8638-0.10456-0.49072 0.027039-0.93115 0.084801-1.292 0.1394-0.43817 0.066261-0.85957 0.1582-1.292 0.24391-10.799 2.6656-17.678 17.479-15.471 33.974 2.151 16.081 12.167 28.088 22.925 28.086z" fill="url(#y)"/>
   <path d="m206.79 149.5c0.32605-7.6e-5 0.66663-0.012527 0.9939-0.034851 0.032227-0.003616 0.067078 0.003754 0.099365 0 0.36005-0.027039 0.69922-0.084793 1.0601-0.13939 0.474-0.071701 0.95996-0.14624 1.4246-0.24393 11.165-2.3472 19.512-12.108 21.666-24.113l-1.1927 0.3484c-2.5416 11.181-10.214 20.477-20.275 23.381-0.44281 0.12782-0.90649 0.24573-1.3583 0.34846-0.34393 0.078186-0.6507 0.15822-0.99384 0.20908-0.030823 0.005844-0.068665-0.005768-0.099365 0-0.31195 0.043976-0.65002 0.082657-0.96075 0.10452-1.2817 0.090195-2.5303-0.009918-3.7767-0.27878 1.1224 0.26356 2.2643 0.41844 3.4123 0.41817zm-6.162-1.3241c-0.3006-0.12979-0.59833-0.26839-0.89448-0.41814 0.29671 0.14708 0.59401 0.28903 0.89448 0.41814zm-2.6504-1.4287c-6.29-4.143-11.246-12.838-12.655-23.695-2.103-16.199 4.449-31.343 14.742-34.706 0.41223-0.11383 0.80804-0.21864 1.2258-0.31361 0.34399-0.078194 0.75806-0.18433 1.2258-0.24391 1.3765-0.17538 3.2964-0.26495 5.5988-0.27877 0.041077 0.003151 0.091431-0.00338 0.13251 0 1.4129 0.11643 2.7941 0.35541 4.141 0.73176-1.4508-0.49575-2.948-0.85661-4.4724-1.0802-0.043152-0.00634-0.089355 0.006088-0.13251 0-2.4155-0.14894-4.4197-0.18412-5.8638-0.10456-0.49072 0.027039-0.93115 0.084801-1.292 0.1394-0.43817 0.066261-0.85957 0.1582-1.292 0.24391-10.799 2.6656-17.678 17.479-15.471 33.974 1.5403 11.515 7.1226 20.909 14.113 25.333zm13.914-44.846l13.782-3.9027c-0.22711-0.2957-0.4596-0.5853-0.69568-0.87115l-13.086 4.7739z" filter="url(#v)"/>
   <path d="m206.85 147.83c0.29907-9.2e-5 0.62744-0.013733 0.92761-0.034836 0.029602-0.003433 0.069763 0.003525 0.099365 0 0.33026-0.025574 0.6297-0.087769 0.96075-0.13939 0.43488-0.067825 0.86578-0.15155 1.292-0.24393 3.5532-0.77028 6.8056-2.3804 9.6073-4.6344-2.0827 0.89235-4.3178 1.5714-6.6589 1.9862-0.49792 0.088196-1.0159 0.14433-1.524 0.20906-0.38666 0.049301-0.74054 0.11498-1.1263 0.13937-0.034668 0.003387-0.064819-0.00325-0.099426 0-0.35065 0.020187-0.71069 0.034805-1.0601 0.034851-8.6466 0.001755-16.87-6.1207-21.401-15.297 3.6791 10.692 11.09 17.982 18.983 17.98z" fill="url(#ah)" filter="url(#t)"/>
   <path d="m211.26 132.6c0.25983-0.032837 0.55005-0.085648 0.83337-0.18263l11.008-3.762-10.869 2.995c-1.6574 0.45703-3.2529-0.057693-4.6879-1.2053-1.4349-1.1476-2.7327-2.928-3.8198-5.0404-0.36792-0.7149-0.68652-1.5186-1.007-2.301 0.29071 0.8196 0.56195 1.6546 0.90289 2.4106 0.99237 2.2006 2.2023 4.1023 3.5073 5.3691 1.3049 1.2668 2.684 1.8995 4.1323 1.7167z" fill="#fff" filter="url(#u)"/>
   <path d="m189.97 132.15c-0.78218-3.9518-0.92781-8.1791-0.31885-12.51 2.0647-14.683 12.154-26.354 24.487-29.967-1.2728-0.40814-2.5599-0.7123-3.8899-0.90599-0.041504-0.00605-0.085999 0.005829-0.1275 0-2.3248-0.1423-4.2537-0.18056-5.6436-0.10453-0.47223 0.025818-0.89618 0.052376-1.2435 0.10453-0.42175 0.063324-0.82727 0.16203-1.2435 0.24391-10.394 2.5467-17.014 16.717-14.89 32.476 0.51758 3.8409 1.513 7.4268 2.8696 10.663z" fill="url(#ai)" filter="url(#s)"/>
  </g>
 </g>
</svg>
